<?xml version="1.0" encoding="UTF-8"?>
<svg viewBox="0 0 24 17" version="1.1" xmlns="http://www.w3.org/2000/svg" xmlns:xlink="http://www.w3.org/1999/xlink">
    <!-- Generator: Sketch 60.1 (88133) - https://sketch.com -->
    <title>Filter iconfilter icon</title>
    <desc>Created with Sketch.</desc>
    <g id="Home-mockup" stroke="none" stroke-width="1" fill="none" fill-rule="evenodd">
        <g id="•-iPhone-XS-/_/-Screen-Shape" transform="translate(-344.000000, -381.000000)">
            <g id="Your-Meetups-" transform="translate(-1.000000, 299.000000)">
                <g id="Filter-icon" transform="translate(345.000000, 82.000000)">
                    <g fill="#000000">
                        <line x1="6.5" y1="3.5" x2="23" y2="3.5" id="Line-2" stroke-opacity="0.85" stroke="#000000" stroke-width="1.5" stroke-linecap="square"></line>
                        <path d="M3,0 C4.65685425,0 6,1.34314575 6,3 C6,4.65685425 4.65685425,6 3,6 C1.34314575,6 0,4.65685425 0,3 C0,1.34314575 1.34314575,0 3,0 Z M3,1.2 C2.00588745,1.2 1.2,2.00588745 1.2,3 C1.2,3.99411255 2.00588745,4.8 3,4.8 C3.99411255,4.8 4.8,3.99411255 4.8,3 C4.8,2.00588745 3.99411255,1.2 3,1.2 Z" id="Combined-Shape"></path>
                    </g>
                    <g id="Group" transform="translate(0.000000, 6.000000)">
                        <line x1="12" y1="3" x2="23.0107722" y2="3.18375583" id="Line-3" stroke="#000000" stroke-width="1.5" stroke-linecap="square" transform="translate(17.505386, 3.091878) rotate(-1.000000) translate(-17.505386, -3.091878) "></line>
                        <line x1="1.5" y1="3.5" x2="6.01077219" y2="3.18375583" id="Line-3" stroke="#000000" stroke-width="1.5" stroke-linecap="square" transform="translate(4.000000, 3.591878) rotate(4.000000) translate(-4.000000, -3.591878) "></line>
                        <path d="M9,0 C10.6568542,0 12,1.34314575 12,3 C12,4.65685425 10.6568542,6 9,6 C7.34314575,6 6,4.65685425 6,3 C6,1.34314575 7.34314575,0 9,0 Z M9,1.10526316 C7.95356574,1.10526316 7.10526316,1.95356574 7.10526316,3 C7.10526316,4.04643426 7.95356574,4.89473684 9,4.89473684 C10.0464343,4.89473684 10.8947368,4.04643426 10.8947368,3 C10.8947368,1.95356574 10.0464343,1.10526316 9,1.10526316 Z" id="Combined-Shape" fill="#000000"></path>
                    </g>
                    <g transform="translate(12.500000, 13.636364) rotate(-180.000000) translate(-12.500000, -13.636364) translate(1.000000, 10.136364)" fill="#000000">
                        <line x1="6" y1="2.63636364" x2="22.5" y2="2.63636364" id="Line-2" stroke-opacity="0.85" stroke="#000000" stroke-width="1.5" stroke-linecap="square"></line>
                        <path d="M3,0.136363636 C4.65685425,0.136363636 6,1.47950939 6,3.13636364 C6,4.79321789 4.65685425,6.13636364 3,6.13636364 C1.34314575,6.13636364 0,4.79321789 0,3.13636364 C0,1.47950939 1.34314575,0.136363636 3,0.136363636 Z M3,1.24162679 C1.95356574,1.24162679 1.10526316,2.08992937 1.10526316,3.13636364 C1.10526316,4.1827979 1.95356574,5.03110048 3,5.03110048 C4.04643426,5.03110048 4.89473684,4.1827979 4.89473684,3.13636364 C4.89473684,2.08992937 4.04643426,1.24162679 3,1.24162679 Z" id="Combined-Shape"></path>
                        <path d="M3,0.136363636 C4.65685425,0.136363636 6,1.47950939 6,3.13636364 C6,4.79321789 4.65685425,6.13636364 3,6.13636364 C1.34314575,6.13636364 0,4.79321789 0,3.13636364 C0,1.47950939 1.34314575,0.136363636 3,0.136363636 Z M3,1.24162679 C1.95356574,1.24162679 1.10526316,2.08992937 1.10526316,3.13636364 C1.10526316,4.1827979 1.95356574,5.03110048 3,5.03110048 C4.04643426,5.03110048 4.89473684,4.1827979 4.89473684,3.13636364 C4.89473684,2.08992937 4.04643426,1.24162679 3,1.24162679 Z" id="Combined-Shape"></path>
                    </g>
                </g>
            </g>
        </g>
    </g>
</svg>